<!DOCTYPE svg PUBLIC "-//W3C//DTD SVG 1.1//EN" "http://www.w3.org/Graphics/SVG/1.1/DTD/svg11.dtd">
<!-- Uploaded to: SVG Repo, www.svgrepo.com, Transformed by: SVG Repo Mixer Tools -->
<svg fill="#ffffff" width="800px" height="800px" viewBox="0 0 24 24" id="tinder" data-name="Flat Color" xmlns="http://www.w3.org/2000/svg" class="icon flat-color" stroke="#ffffff">
<g id="SVGRepo_bgCarrier" stroke-width="0"/>
<g id="SVGRepo_tracerCarrier" stroke-linecap="round" stroke-linejoin="round"/>
<g id="SVGRepo_iconCarrier">
<path id="primary" d="M11.39,2.08a1,1,0,0,0-1,.14,1,1,0,0,0-.35,1c.72,3.62.41,6.08-1,7.46A7.57,7.57,0,0,1,8,7.85a1,1,0,0,0-.68-.8,1,1,0,0,0-1,.24C6.16,7.43,3,10.62,3,14c0,5,3.36,8,9,8,3.23,0,7-2.09,7-8A13.17,13.17,0,0,0,11.39,2.08Z" style="fill: #ffffff;"/>
</g>
</svg>